<svg id="visual" viewBox="0 0 2200 700" width="2200" height="700" xmlns="http://www.w3.org/2000/svg" xmlns:xlink="http://www.w3.org/1999/xlink" version="1.1"><rect x="0" y="0" width="2200" height="700" fill="#141414"></rect><path d="M0 623L61.2 632.3C122.3 641.7 244.7 660.3 366.8 651.3C489 642.3 611 605.7 733.2 604.7C855.3 603.7 977.7 638.3 1100 657.2C1222.3 676 1344.7 679 1466.8 670.3C1589 661.7 1711 641.3 1833.2 630.8C1955.3 620.3 2077.7 619.7 2138.8 619.3L2200 619L2200 701L2138.8 701C2077.7 701 1955.3 701 1833.2 701C1711 701 1589 701 1466.8 701C1344.7 701 1222.3 701 1100 701C977.7 701 855.3 701 733.2 701C611 701 489 701 366.8 701C244.7 701 122.3 701 61.2 701L0 701Z" fill="#c10306" stroke-linecap="round" stroke-linejoin="miter"></path></svg>